<svg width="120" height="24" viewBox="0 0 120 24" fill="none" xmlns="http://www.w3.org/2000/svg">
<path d="M11.0489 2.92705C11.3483 2.00574 12.6517 2.00574 12.9511 2.92705L14.4697 7.60081C14.6035 8.01284 14.9875 8.2918 15.4207 8.2918H20.335C21.3037 8.2918 21.7065 9.53141 20.9228 10.1008L16.947 12.9894C16.5966 13.244 16.4499 13.6954 16.5838 14.1074L18.1024 18.7812C18.4017 19.7025 17.3472 20.4686 16.5635 19.8992L12.5878 17.0106C12.2373 16.756 11.7627 16.756 11.4122 17.0106L7.43648 19.8992C6.65276 20.4686 5.59828 19.7025 5.89763 18.7812L7.41623 14.1074C7.55011 13.6954 7.40345 13.244 7.05296 12.9894L3.07722 10.1008C2.29351 9.53141 2.69628 8.2918 3.66501 8.2918H8.57929C9.01252 8.2918 9.39647 8.01284 9.53035 7.60081L11.0489 2.92705Z" fill="#393836"/>
<path d="M35.0489 2.92705C35.3483 2.00574 36.6517 2.00574 36.9511 2.92705L38.4697 7.60081C38.6035 8.01284 38.9875 8.2918 39.4207 8.2918H44.335C45.3037 8.2918 45.7065 9.53141 44.9228 10.1008L40.947 12.9894C40.5966 13.244 40.4499 13.6954 40.5838 14.1074L42.1024 18.7812C42.4017 19.7025 41.3472 20.4686 40.5635 19.8992L36.5878 17.0106C36.2373 16.756 35.7627 16.756 35.4122 17.0106L31.4365 19.8992C30.6528 20.4686 29.5983 19.7025 29.8976 18.7812L31.4162 14.1074C31.5501 13.6954 31.4034 13.244 31.053 12.9894L27.0772 10.1008C26.2935 9.53141 26.6963 8.2918 27.665 8.2918H32.5793C33.0125 8.2918 33.3965 8.01284 33.5303 7.60081L35.0489 2.92705Z" fill="#393836"/>
<path d="M59.0489 2.92705C59.3483 2.00574 60.6517 2.00574 60.9511 2.92705L62.4697 7.60081C62.6035 8.01284 62.9875 8.2918 63.4207 8.2918H68.335C69.3037 8.2918 69.7065 9.53141 68.9228 10.1008L64.947 12.9894C64.5966 13.244 64.4499 13.6954 64.5838 14.1074L66.1024 18.7812C66.4017 19.7025 65.3472 20.4686 64.5635 19.8992L60.5878 17.0106C60.2373 16.756 59.7627 16.756 59.4122 17.0106L55.4365 19.8992C54.6528 20.4686 53.5983 19.7025 53.8976 18.7812L55.4162 14.1074C55.5501 13.6954 55.4034 13.244 55.053 12.9894L51.0772 10.1008C50.2935 9.53141 50.6963 8.2918 51.665 8.2918H56.5793C57.0125 8.2918 57.3965 8.01284 57.5303 7.60081L59.0489 2.92705Z" fill="#393836"/>
<path d="M83.5528 2.79863C83.8594 1.89275 85.1406 1.89275 85.4472 2.79862L87.0765 7.61239C87.2139 8.01849 87.595 8.2918 88.0237 8.2918H93.2065C94.185 8.2918 94.5812 9.55218 93.7785 10.112L89.6568 12.9869C89.2919 13.2413 89.139 13.7063 89.2816 14.1276L90.8724 18.8277C91.1818 19.7419 90.1447 20.5207 89.3531 19.9685L85.0721 16.9826C84.7284 16.7429 84.2716 16.7429 83.9279 16.9826L79.6469 19.9685C78.8553 20.5207 77.8182 19.7419 78.1276 18.8277L79.7184 14.1276C79.861 13.7063 79.7081 13.2413 79.3432 12.9869L75.2215 10.112C74.4188 9.55218 74.815 8.2918 75.7935 8.2918H80.9763C81.405 8.2918 81.7861 8.01849 81.9235 7.61239L83.5528 2.79863Z" fill="#393836"/>
<path d="M107.049 2.92705C107.348 2.00574 108.652 2.00574 108.951 2.92705L110.47 7.60081C110.604 8.01284 110.987 8.2918 111.421 8.2918H116.335C117.304 8.2918 117.706 9.53141 116.923 10.1008L112.947 12.9894C112.597 13.244 112.45 13.6954 112.584 14.1074L114.102 18.7812C114.402 19.7025 113.347 20.4686 112.564 19.8992L108.588 17.0106C108.237 16.756 107.763 16.756 107.412 17.0106L103.436 19.8992C102.653 20.4686 101.598 19.7025 101.898 18.7812L103.416 14.1074C103.55 13.6954 103.403 13.244 103.053 12.9894L99.0772 10.1008C98.2935 9.53141 98.6963 8.2918 99.665 8.2918H104.579C105.013 8.2918 105.396 8.01284 105.53 7.60081L107.049 2.92705Z" fill="#D9D9D9"/>
</svg>
