<svg width="255" height="344" viewBox="0 0 255 344" fill="none" xmlns="http://www.w3.org/2000/svg">
<rect width="255" height="344" fill="#E4371E"/>
<mask id="mask0_13_1581" style="mask-type:alpha" maskUnits="userSpaceOnUse" x="0" y="0" width="255" height="344">
<rect width="255" height="344" fill="#D9D9D9"/>
</mask>
<g mask="url(#mask0_13_1581)">
<g opacity="0.13">
<path d="M90.88 325.316V350H8.056V325.316H37.024V263.504C35.8 265.136 33.896 266.836 31.312 268.604C28.728 270.236 25.804 271.8 22.54 273.296C19.276 274.792 16.012 276.016 12.748 276.968C9.484 277.92 6.56 278.396 3.976 278.396V252.896C6.424 252.896 9.348 252.148 12.748 250.652C16.284 249.02 19.752 247.116 23.152 244.94C26.688 242.764 29.68 240.656 32.128 238.616C34.712 236.44 36.344 234.74 37.024 233.516H64.972V325.316H90.88Z" fill="#FDFDFD"/>
<path d="M12.612 56C12.612 50.78 13.018 46.082 13.83 41.906C14.642 37.73 16.034 33.844 18.006 30.248C20.094 26.652 22.878 23.288 26.358 20.156C29.954 16.908 34.478 13.776 39.93 10.76C44.686 8.208 48.862 6.004 52.458 4.148C56.054 2.176 59.07 0.377995 61.506 -1.246C64.058 -2.87 65.972 -4.494 67.248 -6.118C68.524 -7.858 69.162 -9.83 69.162 -12.034C69.162 -14.354 68.524 -16.442 67.248 -18.298C65.972 -20.27 64.174 -21.836 61.854 -22.996C59.534 -24.156 56.634 -24.736 53.154 -24.736C50.37 -24.736 47.76 -24.388 45.324 -23.692C43.004 -22.996 40.8 -22.01 38.712 -20.734C36.74 -19.458 34.884 -18.008 33.144 -16.384C31.404 -14.876 29.838 -13.252 28.446 -11.512L13.656 -28.564C15.28 -30.188 17.426 -31.928 20.094 -33.784C22.878 -35.756 26.126 -37.554 29.838 -39.178C33.666 -40.918 37.842 -42.31 42.366 -43.354C47.006 -44.514 51.936 -45.094 57.156 -45.094C65.044 -45.094 71.772 -43.818 77.34 -41.266C82.908 -38.83 87.142 -35.408 90.042 -31C93.058 -26.592 94.566 -21.43 94.566 -15.514C94.566 -11.454 93.812 -7.858 92.304 -4.726C90.796 -1.594 88.882 1.19 86.562 3.62599C84.242 5.946 81.69 8.034 78.906 9.89C76.238 11.746 73.628 13.37 71.076 14.762C67.48 16.618 64.232 18.358 61.332 19.982C58.432 21.49 55.88 23.056 53.676 24.68C51.472 26.188 49.5 27.754 47.76 29.378C46.136 31.002 44.686 32.858 43.41 34.946H96.48V56H12.612Z" fill="#FDFDFD"/>
<path d="M125.484 110.296C130.076 111.061 134.067 112.811 137.456 115.544C140.845 118.168 143.469 121.557 145.328 125.712C147.296 129.867 148.28 134.459 148.28 139.488C148.28 146.267 146.531 152.171 143.032 157.2C139.533 162.229 134.559 166.111 128.108 168.844C121.767 171.687 114.277 173.108 105.64 173.108C97.3307 173.108 89.9507 171.741 83.5 169.008C77.1587 166.384 71.856 162.503 67.592 157.364L80.056 141.784C82.8987 145.283 86.288 148.016 90.224 149.984C94.2693 152.061 99.1893 153.1 104.984 153.1C111.653 153.1 116.737 151.733 120.236 149C123.735 146.376 125.484 142.385 125.484 137.028C125.484 131.343 123.461 126.969 119.416 123.908C115.371 120.847 109.248 119.316 101.048 119.316H96.456V102.916H101.54C108.209 102.916 113.403 101.385 117.12 98.324C120.947 95.2627 122.86 91.436 122.86 86.844C122.86 83.892 122.149 81.432 120.728 79.464C119.307 77.496 117.339 76.02 114.824 75.036C112.419 74.052 109.576 73.56 106.296 73.56C101.376 73.56 96.8933 74.708 92.848 77.004C88.8027 79.3 85.5227 82.5253 83.008 86.68L69.232 71.264C71.528 67.8747 74.644 64.9773 78.58 62.572C82.6253 60.0573 87.2173 58.0893 92.356 56.668C97.604 55.2467 103.071 54.536 108.756 54.536C116.191 54.536 122.696 55.7387 128.272 58.144C133.957 60.5493 138.385 63.9387 141.556 68.312C144.727 72.6853 146.312 77.7693 146.312 83.564C146.312 87.828 145.437 91.8733 143.688 95.7C141.939 99.5267 139.479 102.752 136.308 105.376C133.247 107.891 129.639 109.531 125.484 110.296Z" fill="#FDFDFD"/>
<path d="M173.808 236.018V216.052H134.68V200.106L179.57 142.486H191.764V199.972H203.556V216.052H191.764V236.018H173.808ZM152.636 199.972H175.818V169.688L152.636 199.972Z" fill="#FDFDFD"/>
<path d="M61.84 187.56C61.84 194.776 59.872 201.063 55.936 206.42C52.1093 211.777 46.9707 215.987 40.52 219.048C34.0693 222 27.0173 223.476 19.364 223.476C11.6013 223.476 4.49467 221.891 -1.956 218.72C-8.29733 215.549 -13.3813 211.231 -17.208 205.764C-20.9253 200.188 -22.784 193.847 -22.784 186.74C-22.784 182.367 -21.8547 178.431 -19.996 174.932C-18.1373 171.324 -15.8413 168.263 -13.108 165.748C-10.2653 163.124 -7.42267 161.101 -4.58 159.68C-7.204 158.368 -9.664 156.619 -11.96 154.432C-14.1467 152.245 -15.896 149.731 -17.208 146.888C-18.52 144.045 -19.176 141.039 -19.176 137.868C-19.176 132.729 -18.028 128.137 -15.732 124.092C-13.436 120.047 -10.3747 116.657 -6.548 113.924C-2.72133 111.081 1.43333 109.004 5.916 107.692C10.508 106.271 15.0453 105.56 19.528 105.56C23.9013 105.56 28.384 106.271 32.976 107.692C37.568 109.004 41.7773 111.027 45.604 113.76C49.4307 116.493 52.492 119.883 54.788 123.928C57.1933 127.864 58.396 132.456 58.396 137.704C58.396 140.765 57.6853 143.772 56.264 146.724C54.952 149.567 53.148 152.136 50.852 154.432C48.6653 156.619 46.1507 158.368 43.308 159.68C46.4787 161.32 49.4853 163.452 52.328 166.076C55.1707 168.7 57.4667 171.816 59.216 175.424C60.9653 179.032 61.84 183.077 61.84 187.56ZM39.536 186.248C39.536 183.405 38.9893 180.945 37.896 178.868C36.8027 176.681 35.272 174.877 33.304 173.456C31.336 171.925 29.1493 170.777 26.744 170.012C24.3387 169.247 21.8787 168.864 19.364 168.864C15.8653 168.864 12.5853 169.575 9.524 170.996C6.572 172.417 4.16667 174.44 2.308 177.064C0.449335 179.688 -0.479999 182.749 -0.479999 186.248C-0.479999 188.872 0.0666681 191.277 1.16 193.464C2.36267 195.541 3.89333 197.345 5.752 198.876C7.72 200.407 9.852 201.609 12.148 202.484C14.5533 203.249 17.0133 203.632 19.528 203.632C23.0267 203.632 26.3067 202.867 29.368 201.336C32.4293 199.805 34.8893 197.728 36.748 195.104C38.6067 192.48 39.536 189.528 39.536 186.248ZM3.128 138.524C3.128 141.476 3.948 143.991 5.588 146.068C7.228 148.145 9.30534 149.731 11.82 150.824C14.444 151.808 17.0133 152.3 19.528 152.3C22.152 152.3 24.6667 151.753 27.072 150.66C29.5867 149.567 31.664 148.036 33.304 146.068C35.0533 143.991 35.928 141.421 35.928 138.36C35.928 135.627 35.1627 133.276 33.632 131.308C32.1013 129.34 30.0787 127.809 27.564 126.716C25.1587 125.623 22.4253 125.076 19.364 125.076C16.5213 125.076 13.8427 125.623 11.328 126.716C8.81334 127.809 6.79067 129.395 5.26 131.472C3.83867 133.44 3.128 135.791 3.128 138.524Z" fill="#FDFDFD"/>
<path d="M205.828 120.906C195.869 120.906 186.881 118.772 178.862 114.504C170.843 110.236 164.765 104.416 160.626 97.044L175.564 81.524C179.185 86.568 183.712 90.5773 189.144 93.552C194.576 96.5267 200.202 98.014 206.022 98.014C210.678 98.014 214.752 97.044 218.244 95.104C221.865 93.164 224.711 90.448 226.78 86.956C228.849 83.464 229.884 79.4547 229.884 74.928C229.884 70.4013 228.914 66.4567 226.974 63.094C225.034 59.7313 222.383 57.1447 219.02 55.334C215.657 53.394 211.842 52.424 207.574 52.424C203.306 52.424 199.297 53.394 195.546 55.334C191.925 57.1447 189.015 59.796 186.816 63.288H164.118L180.026 -18.774H247.926V4.89399H198.844L193.218 35.74C194.899 34.188 197.227 32.8947 200.202 31.86C203.177 30.696 206.863 30.114 211.26 30.114C219.925 30.114 227.685 31.9893 234.54 35.74C241.395 39.4907 246.762 44.7287 250.642 51.454C254.522 58.05 256.462 65.6807 256.462 74.346C256.462 83.5287 254.263 91.612 249.866 98.596C245.469 105.709 239.455 111.206 231.824 115.086C224.193 118.966 215.528 120.906 205.828 120.906Z" fill="#FDFDFD"/>
<path d="M158.288 308.584C158.288 302.42 159.807 296.837 162.844 291.834C165.881 286.831 170.035 282.856 175.306 279.908C180.577 276.96 186.473 275.486 192.994 275.486C200.23 275.486 206.439 277.228 211.62 280.712C216.891 284.196 220.955 289.199 223.814 295.72C226.673 302.152 228.102 309.969 228.102 319.17C228.102 330.694 226.583 340.431 223.546 348.382C220.598 356.333 216.355 362.363 210.816 366.472C205.277 370.581 198.756 372.636 191.252 372.636C185.267 372.636 179.728 371.341 174.636 368.75C169.544 366.159 165.256 362.452 161.772 357.628L172.09 346.372C174.234 349.677 177.003 352.268 180.398 354.144C183.882 356.109 187.589 357.092 191.52 357.092C195.54 357.092 198.979 356.02 201.838 353.876C204.786 351.732 207.064 348.65 208.672 344.63C210.369 340.521 211.263 335.607 211.352 329.89C210.191 331.945 208.583 333.776 206.528 335.384C204.563 336.992 202.285 338.243 199.694 339.136C197.193 339.94 194.423 340.342 191.386 340.342C185.222 340.342 179.594 338.957 174.502 336.188C169.499 333.329 165.524 329.533 162.576 324.798C159.717 319.974 158.288 314.569 158.288 308.584ZM192.994 290.628C189.867 290.628 186.964 291.477 184.284 293.174C181.604 294.782 179.46 296.926 177.852 299.606C176.244 302.286 175.44 305.279 175.44 308.584C175.44 311.8 176.199 314.748 177.718 317.428C179.326 320.019 181.47 322.118 184.15 323.726C186.83 325.245 189.778 326.004 192.994 326.004C196.21 326.004 199.113 325.245 201.704 323.726C204.384 322.118 206.528 320.019 208.136 317.428C209.744 314.748 210.548 311.8 210.548 308.584C210.548 305.368 209.744 302.42 208.136 299.74C206.528 296.971 204.384 294.782 201.704 293.174C199.024 291.477 196.121 290.628 192.994 290.628Z" fill="#FDFDFD"/>
<path d="M303.328 234.392C303.328 242.856 301.181 250.523 296.888 257.392C292.717 264.261 287.013 269.72 279.776 273.768C272.661 277.816 264.565 279.84 255.488 279.84C245.675 279.84 237.149 277.448 229.912 272.664C222.797 267.88 217.277 261.011 213.352 252.056C209.427 243.101 207.464 232.368 207.464 219.856C207.464 204.032 209.488 190.661 213.536 179.744C217.707 168.704 223.595 160.424 231.2 154.904C238.805 149.261 247.76 146.44 258.064 146.44C266.283 146.44 273.827 148.219 280.696 151.776C287.688 155.333 293.576 160.424 298.36 167.048L284.192 182.504C281.248 177.965 277.445 174.408 272.784 171.832C268.123 169.133 263.093 167.784 257.696 167.784C252.176 167.784 247.392 169.256 243.344 172.2C239.296 175.144 236.168 179.437 233.96 185.08C231.752 190.6 230.525 197.285 230.28 205.136C231.997 202.192 234.205 199.677 236.904 197.592C239.603 195.384 242.731 193.728 246.288 192.624C249.845 191.397 253.648 190.784 257.696 190.784C266.405 190.784 274.195 192.747 281.064 196.672C287.933 200.475 293.331 205.688 297.256 212.312C301.304 218.813 303.328 226.173 303.328 234.392ZM255.488 259.048C259.904 259.048 263.952 257.944 267.632 255.736C271.312 253.405 274.256 250.4 276.464 246.72C278.672 242.917 279.776 238.808 279.776 234.392C279.776 229.976 278.672 225.989 276.464 222.432C274.256 218.752 271.312 215.869 267.632 213.784C264.075 211.576 260.088 210.472 255.672 210.472C251.256 210.472 247.208 211.576 243.528 213.784C239.848 215.869 236.904 218.752 234.696 222.432C232.611 225.989 231.568 229.976 231.568 234.392C231.568 238.808 232.672 242.917 234.88 246.72C237.088 250.4 240.032 253.405 243.712 255.736C247.392 257.944 251.317 259.048 255.488 259.048Z" fill="#FDFDFD"/>
<path d="M115.484 219.276H88.352V209.028H133.208L103.64 268.668H90.872L115.484 219.276Z" fill="#FDFDFD"/>
</g>
<path d="M14.836 166.172V155.36H33.672V205H21.568V166.172H14.836ZM41.6264 179.5C41.6264 171.703 43.1224 165.56 46.1144 161.072C49.1517 156.584 54.0251 154.34 60.7344 154.34C67.4437 154.34 72.2944 156.584 75.2864 161.072C78.3237 165.56 79.8424 171.703 79.8424 179.5C79.8424 187.388 78.3237 193.576 75.2864 198.064C72.2944 202.552 67.4437 204.796 60.7344 204.796C54.0251 204.796 49.1517 202.552 46.1144 198.064C43.1224 193.576 41.6264 187.388 41.6264 179.5ZM68.4184 179.5C68.4184 174.921 67.9197 171.408 66.9224 168.96C65.9251 166.467 63.8624 165.22 60.7344 165.22C57.6064 165.22 55.5437 166.467 54.5464 168.96C53.5491 171.408 53.0504 174.921 53.0504 179.5C53.0504 182.583 53.2317 185.144 53.5944 187.184C53.9571 189.179 54.6824 190.811 55.7704 192.08C56.9037 193.304 58.5584 193.916 60.7344 193.916C62.9104 193.916 64.5424 193.304 65.6304 192.08C66.7637 190.811 67.5117 189.179 67.8744 187.184C68.2371 185.144 68.4184 182.583 68.4184 179.5ZM99.9879 195.684C101.529 194.46 102.232 193.893 102.096 193.984C106.539 190.312 110.029 187.297 112.568 184.94C115.152 182.583 117.328 180.112 119.096 177.528C120.864 174.944 121.748 172.428 121.748 169.98C121.748 168.121 121.317 166.671 120.456 165.628C119.595 164.585 118.303 164.064 116.58 164.064C114.857 164.064 113.497 164.721 112.5 166.036C111.548 167.305 111.072 169.119 111.072 171.476H99.8519C99.9426 167.623 100.759 164.404 102.3 161.82C103.887 159.236 105.949 157.332 108.488 156.108C111.072 154.884 113.928 154.272 117.056 154.272C122.451 154.272 126.508 155.655 129.228 158.42C131.993 161.185 133.376 164.789 133.376 169.232C133.376 174.083 131.721 178.593 128.412 182.764C125.103 186.889 120.887 190.924 115.764 194.868H134.124V204.32H99.9879V195.684ZM139.652 169.368C139.833 164.517 141.42 160.777 144.412 158.148C147.404 155.519 151.461 154.204 156.584 154.204C159.984 154.204 162.885 154.793 165.288 155.972C167.736 157.151 169.572 158.76 170.796 160.8C172.065 162.84 172.7 165.129 172.7 167.668C172.7 170.66 171.952 173.108 170.456 175.012C168.96 176.871 167.214 178.14 165.22 178.82V179.092C167.804 179.953 169.844 181.381 171.34 183.376C172.836 185.371 173.584 187.932 173.584 191.06C173.584 193.871 172.926 196.364 171.612 198.54C170.342 200.671 168.461 202.348 165.968 203.572C163.52 204.796 160.596 205.408 157.196 205.408C151.756 205.408 147.404 204.071 144.14 201.396C140.921 198.721 139.221 194.687 139.04 189.292H150.328C150.373 191.287 150.94 192.873 152.028 194.052C153.116 195.185 154.702 195.752 156.788 195.752C158.556 195.752 159.916 195.253 160.868 194.256C161.865 193.213 162.364 191.853 162.364 190.176C162.364 188 161.661 186.436 160.256 185.484C158.896 184.487 156.697 183.988 153.66 183.988H151.484V174.536H153.66C155.972 174.536 157.83 174.151 159.236 173.38C160.686 172.564 161.412 171.136 161.412 169.096C161.412 167.464 160.958 166.195 160.052 165.288C159.145 164.381 157.898 163.928 156.312 163.928C154.589 163.928 153.297 164.449 152.436 165.492C151.62 166.535 151.144 167.827 151.008 169.368H139.652ZM180.687 196.16V186.776L202.175 156.04H215.163V186.096H220.739V196.16H215.163V205H203.535V196.16H180.687ZM204.351 168.824L192.927 186.096H204.351V168.824ZM31.886 256.946H21.322L19.574 262H13.988L23.526 235.438H29.72L39.258 262H33.634L31.886 256.946ZM30.442 252.69L26.604 241.594L22.766 252.69H30.442ZM48.1432 244.216C48.8272 243.101 49.7138 242.227 50.8032 241.594C51.9178 240.961 53.1845 240.644 54.6032 240.644V246.23H53.1972C51.5252 246.23 50.2585 246.623 49.3972 247.408C48.5612 248.193 48.1432 249.561 48.1432 251.512V262H42.8232V240.948H48.1432V244.216ZM64.3805 245.318V255.502C64.3805 256.211 64.5451 256.731 64.8745 257.06C65.2291 257.364 65.8118 257.516 66.6225 257.516H69.0925V262H65.7485C61.2645 262 59.0225 259.821 59.0225 255.464V245.318H56.5145V240.948H59.0225V235.742H64.3805V240.948H69.0925V245.318H64.3805ZM75.6169 238.44C74.6795 238.44 73.8942 238.149 73.2609 237.566C72.6529 236.958 72.3489 236.211 72.3489 235.324C72.3489 234.437 72.6529 233.703 73.2609 233.12C73.8942 232.512 74.6795 232.208 75.6169 232.208C76.5542 232.208 77.3269 232.512 77.9349 233.12C78.5682 233.703 78.8849 234.437 78.8849 235.324C78.8849 236.211 78.5682 236.958 77.9349 237.566C77.3269 238.149 76.5542 238.44 75.6169 238.44ZM78.2389 240.948V262H72.9189V240.948H78.2389ZM82.127 251.474C82.127 249.295 82.5704 247.395 83.457 245.774C84.3437 244.127 85.5724 242.861 87.143 241.974C88.7137 241.062 90.5124 240.606 92.539 240.606C95.1484 240.606 97.3017 241.265 98.999 242.582C100.722 243.874 101.874 245.698 102.457 248.054H96.719C96.415 247.142 95.8957 246.433 95.161 245.926C94.4517 245.394 93.565 245.128 92.501 245.128C90.981 245.128 89.7777 245.685 88.891 246.8C88.0044 247.889 87.561 249.447 87.561 251.474C87.561 253.475 88.0044 255.033 88.891 256.148C89.7777 257.237 90.981 257.782 92.501 257.782C94.6544 257.782 96.0604 256.819 96.719 254.894H102.457C101.874 257.174 100.722 258.985 98.999 260.328C97.2764 261.671 95.123 262.342 92.539 262.342C90.5124 262.342 88.7137 261.899 87.143 261.012C85.5724 260.1 84.3437 258.833 83.457 257.212C82.5704 255.565 82.127 253.653 82.127 251.474ZM111.674 233.88V262H106.354V233.88H111.674ZM136.501 251.018C136.501 251.778 136.45 252.462 136.349 253.07H120.959C121.085 254.59 121.617 255.781 122.555 256.642C123.492 257.503 124.645 257.934 126.013 257.934C127.989 257.934 129.395 257.085 130.231 255.388H135.969C135.361 257.415 134.195 259.087 132.473 260.404C130.75 261.696 128.635 262.342 126.127 262.342C124.1 262.342 122.276 261.899 120.655 261.012C119.059 260.1 117.805 258.821 116.893 257.174C116.006 255.527 115.563 253.627 115.563 251.474C115.563 249.295 116.006 247.383 116.893 245.736C117.779 244.089 119.021 242.823 120.617 241.936C122.213 241.049 124.049 240.606 126.127 240.606C128.128 240.606 129.914 241.037 131.485 241.898C133.081 242.759 134.309 243.988 135.171 245.584C136.057 247.155 136.501 248.966 136.501 251.018ZM130.991 249.498C130.965 248.13 130.471 247.041 129.509 246.23C128.546 245.394 127.368 244.976 125.975 244.976C124.657 244.976 123.543 245.381 122.631 246.192C121.744 246.977 121.199 248.079 120.997 249.498H130.991ZM148.44 262.342C146.717 262.342 145.172 262.038 143.804 261.43C142.436 260.797 141.346 259.948 140.536 258.884C139.75 257.82 139.32 256.642 139.244 255.35H144.602C144.703 256.161 145.096 256.832 145.78 257.364C146.489 257.896 147.363 258.162 148.402 258.162C149.415 258.162 150.2 257.959 150.758 257.554C151.34 257.149 151.632 256.629 151.632 255.996C151.632 255.312 151.277 254.805 150.568 254.476C149.884 254.121 148.782 253.741 147.262 253.336C145.691 252.956 144.399 252.563 143.386 252.158C142.398 251.753 141.536 251.132 140.802 250.296C140.092 249.46 139.738 248.333 139.738 246.914C139.738 245.749 140.067 244.685 140.726 243.722C141.41 242.759 142.372 241.999 143.614 241.442C144.88 240.885 146.362 240.606 148.06 240.606C150.568 240.606 152.569 241.239 154.064 242.506C155.558 243.747 156.382 245.432 156.534 247.56H151.442C151.366 246.724 151.011 246.065 150.378 245.584C149.77 245.077 148.946 244.824 147.908 244.824C146.945 244.824 146.198 245.001 145.666 245.356C145.159 245.711 144.906 246.205 144.906 246.838C144.906 247.547 145.26 248.092 145.97 248.472C146.679 248.827 147.781 249.194 149.276 249.574C150.796 249.954 152.05 250.347 153.038 250.752C154.026 251.157 154.874 251.791 155.584 252.652C156.318 253.488 156.698 254.603 156.724 255.996C156.724 257.212 156.382 258.301 155.698 259.264C155.039 260.227 154.076 260.987 152.81 261.544C151.568 262.076 150.112 262.342 148.44 262.342ZM20.942 301.216C21.626 300.101 22.5127 299.227 23.602 298.594C24.7167 297.961 25.9833 297.644 27.402 297.644V303.23H25.996C24.324 303.23 23.0573 303.623 22.196 304.408C21.36 305.193 20.942 306.561 20.942 308.512V319H15.622V297.948H20.942V301.216ZM50.5553 308.018C50.5553 308.778 50.5046 309.462 50.4033 310.07H35.0133C35.1399 311.59 35.6719 312.781 36.6093 313.642C37.5466 314.503 38.6993 314.934 40.0673 314.934C42.0433 314.934 43.4493 314.085 44.2853 312.388H50.0233C49.4153 314.415 48.2499 316.087 46.5273 317.404C44.8046 318.696 42.6893 319.342 40.1813 319.342C38.1546 319.342 36.3306 318.899 34.7093 318.012C33.1133 317.1 31.8593 315.821 30.9473 314.174C30.0606 312.527 29.6173 310.627 29.6173 308.474C29.6173 306.295 30.0606 304.383 30.9473 302.736C31.8339 301.089 33.0753 299.823 34.6713 298.936C36.2673 298.049 38.1039 297.606 40.1813 297.606C42.1826 297.606 43.9686 298.037 45.5393 298.898C47.1353 299.759 48.3639 300.988 49.2253 302.584C50.1119 304.155 50.5553 305.966 50.5553 308.018ZM45.0453 306.498C45.0199 305.13 44.5259 304.041 43.5633 303.23C42.6006 302.394 41.4226 301.976 40.0293 301.976C38.7119 301.976 37.5973 302.381 36.6853 303.192C35.7986 303.977 35.2539 305.079 35.0513 306.498H45.0453ZM44.2473 292.4L35.5073 296.39V292.59L44.2473 288.068V292.4ZM64.0904 302.318H60.4044V319H55.0084V302.318H52.6144V297.948H55.0084V296.884C55.0084 294.3 55.7431 292.4 57.2124 291.184C58.6817 289.968 60.8984 289.398 63.8624 289.474V293.958C62.5704 293.933 61.6711 294.148 61.1644 294.604C60.6577 295.06 60.4044 295.883 60.4044 297.074V297.948H64.0904V302.318ZM87.108 308.018C87.108 308.778 87.0574 309.462 86.956 310.07H71.566C71.6927 311.59 72.2247 312.781 73.162 313.642C74.0993 314.503 75.252 314.934 76.62 314.934C78.596 314.934 80.002 314.085 80.838 312.388H86.576C85.968 314.415 84.8027 316.087 83.08 317.404C81.3573 318.696 79.242 319.342 76.734 319.342C74.7073 319.342 72.8833 318.899 71.262 318.012C69.666 317.1 68.412 315.821 67.5 314.174C66.6133 312.527 66.17 310.627 66.17 308.474C66.17 306.295 66.6133 304.383 67.5 302.736C68.3867 301.089 69.628 299.823 71.224 298.936C72.82 298.049 74.6567 297.606 76.734 297.606C78.7353 297.606 80.5213 298.037 82.092 298.898C83.688 299.759 84.9167 300.988 85.778 302.584C86.6647 304.155 87.108 305.966 87.108 308.018ZM81.598 306.498C81.5727 305.13 81.0787 304.041 80.116 303.23C79.1533 302.394 77.9753 301.976 76.582 301.976C75.2647 301.976 74.15 302.381 73.238 303.192C72.3513 303.977 71.8067 305.079 71.604 306.498H81.598ZM80.8 292.4L72.06 296.39V292.59L80.8 288.068V292.4ZM96.3111 301.216C96.9951 300.101 97.8818 299.227 98.9711 298.594C100.086 297.961 101.352 297.644 102.771 297.644V303.23H101.365C99.6931 303.23 98.4265 303.623 97.5651 304.408C96.7291 305.193 96.3111 306.561 96.3111 308.512V319H90.9911V297.948H96.3111V301.216ZM125.924 308.018C125.924 308.778 125.874 309.462 125.772 310.07H110.382C110.509 311.59 111.041 312.781 111.978 313.642C112.916 314.503 114.068 314.934 115.436 314.934C117.412 314.934 118.818 314.085 119.654 312.388H125.392C124.784 314.415 123.619 316.087 121.896 317.404C120.174 318.696 118.058 319.342 115.55 319.342C113.524 319.342 111.7 318.899 110.078 318.012C108.482 317.1 107.228 315.821 106.316 314.174C105.43 312.527 104.986 310.627 104.986 308.474C104.986 306.295 105.43 304.383 106.316 302.736C107.203 301.089 108.444 299.823 110.04 298.936C111.636 298.049 113.473 297.606 115.55 297.606C117.552 297.606 119.338 298.037 120.908 298.898C122.504 299.759 123.733 300.988 124.594 302.584C125.481 304.155 125.924 305.966 125.924 308.018ZM120.414 306.498C120.389 305.13 119.895 304.041 118.932 303.23C117.97 302.394 116.792 301.976 115.398 301.976C114.081 301.976 112.966 302.381 112.054 303.192C111.168 303.977 110.623 305.079 110.42 306.498H120.414ZM141.474 297.644C143.982 297.644 146.008 298.442 147.554 300.038C149.099 301.609 149.872 303.813 149.872 306.65V319H144.552V307.372C144.552 305.7 144.134 304.421 143.298 303.534C142.462 302.622 141.322 302.166 139.878 302.166C138.408 302.166 137.243 302.622 136.382 303.534C135.546 304.421 135.128 305.7 135.128 307.372V319H129.808V297.948H135.128V300.57C135.837 299.658 136.736 298.949 137.826 298.442C138.94 297.91 140.156 297.644 141.474 297.644ZM153.563 308.474C153.563 306.295 154.006 304.395 154.893 302.774C155.779 301.127 157.008 299.861 158.579 298.974C160.149 298.062 161.948 297.606 163.975 297.606C166.584 297.606 168.737 298.265 170.435 299.582C172.157 300.874 173.31 302.698 173.893 305.054H168.155C167.851 304.142 167.331 303.433 166.597 302.926C165.887 302.394 165.001 302.128 163.937 302.128C162.417 302.128 161.213 302.685 160.327 303.8C159.44 304.889 158.997 306.447 158.997 308.474C158.997 310.475 159.44 312.033 160.327 313.148C161.213 314.237 162.417 314.782 163.937 314.782C166.09 314.782 167.496 313.819 168.155 311.894H173.893C173.31 314.174 172.157 315.985 170.435 317.328C168.712 318.671 166.559 319.342 163.975 319.342C161.948 319.342 160.149 318.899 158.579 318.012C157.008 317.1 155.779 315.833 154.893 314.212C154.006 312.565 153.563 310.653 153.563 308.474ZM197.36 308.018C197.36 308.778 197.309 309.462 197.208 310.07H181.818C181.945 311.59 182.477 312.781 183.414 313.642C184.351 314.503 185.504 314.934 186.872 314.934C188.848 314.934 190.254 314.085 191.09 312.388H196.828C196.22 314.415 195.055 316.087 193.332 317.404C191.609 318.696 189.494 319.342 186.986 319.342C184.959 319.342 183.135 318.899 181.514 318.012C179.918 317.1 178.664 315.821 177.752 314.174C176.865 312.527 176.422 310.627 176.422 308.474C176.422 306.295 176.865 304.383 177.752 302.736C178.639 301.089 179.88 299.823 181.476 298.936C183.072 298.049 184.909 297.606 186.986 297.606C188.987 297.606 190.773 298.037 192.344 298.898C193.94 299.759 195.169 300.988 196.03 302.584C196.917 304.155 197.36 305.966 197.36 308.018ZM191.85 306.498C191.825 305.13 191.331 304.041 190.368 303.23C189.405 302.394 188.227 301.976 186.834 301.976C185.517 301.976 184.402 302.381 183.49 303.192C182.603 303.977 182.059 305.079 181.856 306.498H191.85ZM191.052 292.4L182.312 296.39V292.59L191.052 288.068V292.4ZM209.299 319.342C207.576 319.342 206.031 319.038 204.663 318.43C203.295 317.797 202.206 316.948 201.395 315.884C200.61 314.82 200.179 313.642 200.103 312.35H205.461C205.562 313.161 205.955 313.832 206.639 314.364C207.348 314.896 208.222 315.162 209.261 315.162C210.274 315.162 211.06 314.959 211.617 314.554C212.2 314.149 212.491 313.629 212.491 312.996C212.491 312.312 212.136 311.805 211.427 311.476C210.743 311.121 209.641 310.741 208.121 310.336C206.55 309.956 205.258 309.563 204.245 309.158C203.257 308.753 202.396 308.132 201.661 307.296C200.952 306.46 200.597 305.333 200.597 303.914C200.597 302.749 200.926 301.685 201.585 300.722C202.269 299.759 203.232 298.999 204.473 298.442C205.74 297.885 207.222 297.606 208.919 297.606C211.427 297.606 213.428 298.239 214.923 299.506C216.418 300.747 217.241 302.432 217.393 304.56H212.301C212.225 303.724 211.87 303.065 211.237 302.584C210.629 302.077 209.806 301.824 208.767 301.824C207.804 301.824 207.057 302.001 206.525 302.356C206.018 302.711 205.765 303.205 205.765 303.838C205.765 304.547 206.12 305.092 206.829 305.472C207.538 305.827 208.64 306.194 210.135 306.574C211.655 306.954 212.909 307.347 213.897 307.752C214.885 308.157 215.734 308.791 216.443 309.652C217.178 310.488 217.558 311.603 217.583 312.996C217.583 314.212 217.241 315.301 216.557 316.264C215.898 317.227 214.936 317.987 213.669 318.544C212.428 319.076 210.971 319.342 209.299 319.342Z" fill="white"/>
</g>
</svg>
