<svg width="255" height="344" viewBox="0 0 255 344" fill="none" xmlns="http://www.w3.org/2000/svg">
<rect width="255" height="344" fill="#E4371E"/>
<path d="M21.248 116.2V100.978H49.686V187H32.694V116.2H21.248ZM71.198 168.356C78.75 162.063 84.768 156.831 89.252 152.662C93.736 148.414 97.4726 144.009 100.462 139.446C103.451 134.883 104.946 130.399 104.946 125.994C104.946 121.982 104.002 118.835 102.114 116.554C100.226 114.273 97.3153 113.132 93.382 113.132C89.4486 113.132 86.42 114.469 84.296 117.144C82.172 119.74 81.0706 123.319 80.992 127.882H64.944C65.2586 118.442 68.0513 111.283 73.322 106.406C78.6713 101.529 85.4366 99.09 93.618 99.09C102.586 99.09 109.469 101.489 114.268 106.288C119.067 111.008 121.466 117.262 121.466 125.05C121.466 131.186 119.814 137.047 116.51 142.632C113.206 148.217 109.43 153.095 105.182 157.264C100.934 161.355 95.388 166.311 88.544 172.132H123.354V185.82H65.062V173.548L71.198 168.356ZM191.584 115.256H153.352V135.434C155.004 133.389 157.364 131.737 160.432 130.478C163.5 129.141 166.764 128.472 170.226 128.472C176.519 128.472 181.672 129.849 185.684 132.602C189.696 135.355 192.606 138.895 194.416 143.222C196.225 147.47 197.13 152.033 197.13 156.91C197.13 165.957 194.534 173.233 189.342 178.74C184.228 184.247 176.912 187 167.394 187C158.426 187 151.267 184.758 145.918 180.274C140.568 175.79 137.54 169.929 136.832 162.692H152.88C153.588 165.839 155.161 168.356 157.6 170.244C160.117 172.132 163.303 173.076 167.158 173.076C171.799 173.076 175.3 171.621 177.66 168.71C180.02 165.799 181.2 161.945 181.2 157.146C181.2 152.269 179.98 148.571 177.542 146.054C175.182 143.458 171.681 142.16 167.04 142.16C163.736 142.16 160.982 142.986 158.78 144.638C156.577 146.29 155.004 148.493 154.06 151.246H138.248V100.742H191.584V115.256ZM17.924 221.188C17.924 219.62 18.232 218.229 18.848 217.016C19.4827 215.803 20.332 214.869 21.396 214.216C22.4787 213.563 23.6827 213.236 25.008 213.236C26.1653 213.236 27.1733 213.469 28.032 213.936C28.9093 214.403 29.6093 214.991 30.132 215.7V213.488H34.08V229H30.132V226.732C29.628 227.46 28.928 228.067 28.032 228.552C27.1547 229.019 26.1373 229.252 24.98 229.252C23.6733 229.252 22.4787 228.916 21.396 228.244C20.332 227.572 19.4827 226.629 18.848 225.416C18.232 224.184 17.924 222.775 17.924 221.188ZM30.132 221.244C30.132 220.292 29.9453 219.48 29.572 218.808C29.1987 218.117 28.6947 217.595 28.06 217.24C27.4253 216.867 26.744 216.68 26.016 216.68C25.288 216.68 24.616 216.857 24 217.212C23.384 217.567 22.88 218.089 22.488 218.78C22.1147 219.452 21.928 220.255 21.928 221.188C21.928 222.121 22.1147 222.943 22.488 223.652C22.88 224.343 23.384 224.875 24 225.248C24.6347 225.621 25.3067 225.808 26.016 225.808C26.744 225.808 27.4253 225.631 28.06 225.276C28.6947 224.903 29.1987 224.38 29.572 223.708C29.9453 223.017 30.132 222.196 30.132 221.244ZM41.8286 215.896C42.3326 215.075 42.9859 214.431 43.7886 213.964C44.6099 213.497 45.5432 213.264 46.5886 213.264V217.38H45.5526C44.3206 217.38 43.3872 217.669 42.7526 218.248C42.1366 218.827 41.8286 219.835 41.8286 221.272V229H37.9086V213.488H41.8286V215.896ZM53.7929 216.708V224.212C53.7929 224.735 53.9142 225.117 54.1569 225.36C54.4182 225.584 54.8475 225.696 55.4449 225.696H57.2649V229H54.8009C51.4969 229 49.8449 227.395 49.8449 224.184V216.708H47.9969V213.488H49.8449V209.652H53.7929V213.488H57.2649V216.708H53.7929ZM62.0723 211.64C61.3817 211.64 60.803 211.425 60.3363 210.996C59.8883 210.548 59.6643 209.997 59.6643 209.344C59.6643 208.691 59.8883 208.149 60.3363 207.72C60.803 207.272 61.3817 207.048 62.0723 207.048C62.763 207.048 63.3323 207.272 63.7803 207.72C64.247 208.149 64.4803 208.691 64.4803 209.344C64.4803 209.997 64.247 210.548 63.7803 210.996C63.3323 211.425 62.763 211.64 62.0723 211.64ZM64.0043 213.488V229H60.0843V213.488H64.0043ZM66.8693 221.244C66.8693 219.639 67.196 218.239 67.8493 217.044C68.5026 215.831 69.408 214.897 70.5653 214.244C71.7226 213.572 73.048 213.236 74.5413 213.236C76.464 213.236 78.0506 213.721 79.3013 214.692C80.5706 215.644 81.42 216.988 81.8493 218.724H77.6213C77.3973 218.052 77.0146 217.529 76.4733 217.156C75.9506 216.764 75.2973 216.568 74.5133 216.568C73.3933 216.568 72.5066 216.979 71.8533 217.8C71.2 218.603 70.8733 219.751 70.8733 221.244C70.8733 222.719 71.2 223.867 71.8533 224.688C72.5066 225.491 73.3933 225.892 74.5133 225.892C76.1 225.892 77.136 225.183 77.6213 223.764H81.8493C81.42 225.444 80.5706 226.779 79.3013 227.768C78.032 228.757 76.4453 229.252 74.5413 229.252C73.048 229.252 71.7226 228.925 70.5653 228.272C69.408 227.6 68.5026 226.667 67.8493 225.472C67.196 224.259 66.8693 222.849 66.8693 221.244ZM88.6411 208.28V229H84.7211V208.28H88.6411ZM106.934 220.908C106.934 221.468 106.897 221.972 106.822 222.42H95.482C95.5754 223.54 95.9674 224.417 96.658 225.052C97.3487 225.687 98.198 226.004 99.206 226.004C100.662 226.004 101.698 225.379 102.314 224.128H106.542C106.094 225.621 105.235 226.853 103.966 227.824C102.697 228.776 101.138 229.252 99.29 229.252C97.7967 229.252 96.4527 228.925 95.258 228.272C94.082 227.6 93.158 226.657 92.486 225.444C91.8327 224.231 91.506 222.831 91.506 221.244C91.506 219.639 91.8327 218.229 92.486 217.016C93.1394 215.803 94.054 214.869 95.23 214.216C96.406 213.563 97.7594 213.236 99.29 213.236C100.765 213.236 102.081 213.553 103.238 214.188C104.414 214.823 105.319 215.728 105.954 216.904C106.607 218.061 106.934 219.396 106.934 220.908ZM102.874 219.788C102.855 218.78 102.491 217.977 101.782 217.38C101.073 216.764 100.205 216.456 99.178 216.456C98.2074 216.456 97.386 216.755 96.714 217.352C96.0607 217.931 95.6594 218.743 95.51 219.788H102.874ZM115.731 229.252C114.462 229.252 113.323 229.028 112.315 228.58C111.307 228.113 110.505 227.488 109.907 226.704C109.329 225.92 109.011 225.052 108.955 224.1H112.903C112.978 224.697 113.267 225.192 113.771 225.584C114.294 225.976 114.938 226.172 115.703 226.172C116.45 226.172 117.029 226.023 117.439 225.724C117.869 225.425 118.083 225.043 118.083 224.576C118.083 224.072 117.822 223.699 117.299 223.456C116.795 223.195 115.983 222.915 114.863 222.616C113.706 222.336 112.754 222.047 112.007 221.748C111.279 221.449 110.645 220.992 110.103 220.376C109.581 219.76 109.319 218.929 109.319 217.884C109.319 217.025 109.562 216.241 110.047 215.532C110.551 214.823 111.261 214.263 112.175 213.852C113.109 213.441 114.201 213.236 115.451 213.236C117.299 213.236 118.774 213.703 119.875 214.636C120.977 215.551 121.583 216.792 121.695 218.36H117.943C117.887 217.744 117.626 217.259 117.159 216.904C116.711 216.531 116.105 216.344 115.339 216.344C114.63 216.344 114.079 216.475 113.687 216.736C113.314 216.997 113.127 217.361 113.127 217.828C113.127 218.351 113.389 218.752 113.911 219.032C114.434 219.293 115.246 219.564 116.347 219.844C117.467 220.124 118.391 220.413 119.119 220.712C119.847 221.011 120.473 221.477 120.995 222.112C121.537 222.728 121.817 223.549 121.835 224.576C121.835 225.472 121.583 226.275 121.079 226.984C120.594 227.693 119.885 228.253 118.951 228.664C118.037 229.056 116.963 229.252 115.731 229.252ZM130.717 221.188C130.717 219.62 131.025 218.229 131.641 217.016C132.276 215.803 133.125 214.869 134.189 214.216C135.272 213.563 136.476 213.236 137.801 213.236C138.958 213.236 139.966 213.469 140.825 213.936C141.702 214.403 142.402 214.991 142.925 215.7V213.488H146.873V229H142.925V226.732C142.421 227.46 141.721 228.067 140.825 228.552C139.948 229.019 138.93 229.252 137.773 229.252C136.466 229.252 135.272 228.916 134.189 228.244C133.125 227.572 132.276 226.629 131.641 225.416C131.025 224.184 130.717 222.775 130.717 221.188ZM142.925 221.244C142.925 220.292 142.738 219.48 142.365 218.808C141.992 218.117 141.488 217.595 140.853 217.24C140.218 216.867 139.537 216.68 138.809 216.68C138.081 216.68 137.409 216.857 136.793 217.212C136.177 217.567 135.673 218.089 135.281 218.78C134.908 219.452 134.721 220.255 134.721 221.188C134.721 222.121 134.908 222.943 135.281 223.652C135.673 224.343 136.177 224.875 136.793 225.248C137.428 225.621 138.1 225.808 138.809 225.808C139.537 225.808 140.218 225.631 140.853 225.276C141.488 224.903 141.992 224.38 142.365 223.708C142.738 223.017 142.925 222.196 142.925 221.244ZM152.69 211.64C151.98 211.64 151.392 211.425 150.926 210.996C150.478 210.548 150.254 209.997 150.254 209.344C150.254 208.691 150.478 208.149 150.926 207.72C151.392 207.272 151.98 207.048 152.69 207.048C153.38 207.048 153.95 207.272 154.398 207.72C154.846 208.149 155.07 208.691 155.07 209.344C155.07 209.997 154.846 210.548 154.398 210.996C153.95 211.425 153.38 211.64 152.69 211.64ZM154.622 231.548C154.622 233.265 154.192 234.497 153.334 235.244C152.494 236.009 151.28 236.392 149.694 236.392H147.958V233.06H149.078C149.675 233.06 150.095 232.939 150.338 232.696C150.58 232.472 150.702 232.099 150.702 231.576V213.488H154.622V231.548ZM165.383 229.252C163.889 229.252 162.545 228.925 161.351 228.272C160.156 227.6 159.213 226.657 158.523 225.444C157.851 224.231 157.515 222.831 157.515 221.244C157.515 219.657 157.86 218.257 158.551 217.044C159.26 215.831 160.221 214.897 161.435 214.244C162.648 213.572 164.001 213.236 165.495 213.236C166.988 213.236 168.341 213.572 169.555 214.244C170.768 214.897 171.72 215.831 172.411 217.044C173.12 218.257 173.475 219.657 173.475 221.244C173.475 222.831 173.111 224.231 172.382 225.444C171.673 226.657 170.703 227.6 169.471 228.272C168.257 228.925 166.895 229.252 165.383 229.252ZM165.383 225.836C166.092 225.836 166.755 225.668 167.371 225.332C168.005 224.977 168.509 224.455 168.883 223.764C169.256 223.073 169.443 222.233 169.443 221.244C169.443 219.769 169.051 218.64 168.267 217.856C167.501 217.053 166.559 216.652 165.439 216.652C164.319 216.652 163.376 217.053 162.611 217.856C161.864 218.64 161.491 219.769 161.491 221.244C161.491 222.719 161.855 223.857 162.583 224.66C163.329 225.444 164.263 225.836 165.383 225.836ZM190.994 213.488V229H187.046V227.04C186.542 227.712 185.879 228.244 185.058 228.636C184.255 229.009 183.378 229.196 182.426 229.196C181.213 229.196 180.139 228.944 179.206 228.44C178.273 227.917 177.535 227.161 176.994 226.172C176.471 225.164 176.21 223.969 176.21 222.588V213.488H180.13V222.028C180.13 223.26 180.438 224.212 181.054 224.884C181.67 225.537 182.51 225.864 183.574 225.864C184.657 225.864 185.506 225.537 186.122 224.884C186.738 224.212 187.046 223.26 187.046 222.028V213.488H190.994ZM199.426 216.708V224.212C199.426 224.735 199.547 225.117 199.79 225.36C200.051 225.584 200.48 225.696 201.078 225.696H202.898V229H200.434C197.13 229 195.478 227.395 195.478 224.184V216.708H193.63V213.488H195.478V209.652H199.426V213.488H202.898V216.708H199.426ZM220.137 220.908C220.137 221.468 220.1 221.972 220.025 222.42H208.685C208.778 223.54 209.17 224.417 209.861 225.052C210.552 225.687 211.401 226.004 212.409 226.004C213.865 226.004 214.901 225.379 215.517 224.128H219.745C219.297 225.621 218.438 226.853 217.169 227.824C215.9 228.776 214.341 229.252 212.493 229.252C211 229.252 209.656 228.925 208.461 228.272C207.285 227.6 206.361 226.657 205.689 225.444C205.036 224.231 204.709 222.831 204.709 221.244C204.709 219.639 205.036 218.229 205.689 217.016C206.342 215.803 207.257 214.869 208.433 214.216C209.609 213.563 210.962 213.236 212.493 213.236C213.968 213.236 215.284 213.553 216.441 214.188C217.617 214.823 218.522 215.728 219.157 216.904C219.81 218.061 220.137 219.396 220.137 220.908ZM216.077 219.788C216.058 218.78 215.694 217.977 214.985 217.38C214.276 216.764 213.408 216.456 212.381 216.456C211.41 216.456 210.589 216.755 209.917 217.352C209.264 217.931 208.862 218.743 208.713 219.788H216.077ZM215.489 209.4L209.049 212.34V209.54L215.489 206.208V209.4ZM228.934 229.252C227.665 229.252 226.526 229.028 225.518 228.58C224.51 228.113 223.708 227.488 223.11 226.704C222.532 225.92 222.214 225.052 222.158 224.1H226.106C226.181 224.697 226.47 225.192 226.974 225.584C227.497 225.976 228.141 226.172 228.906 226.172C229.653 226.172 230.232 226.023 230.642 225.724C231.072 225.425 231.286 225.043 231.286 224.576C231.286 224.072 231.025 223.699 230.502 223.456C229.998 223.195 229.186 222.915 228.066 222.616C226.909 222.336 225.957 222.047 225.21 221.748C224.482 221.449 223.848 220.992 223.306 220.376C222.784 219.76 222.522 218.929 222.522 217.884C222.522 217.025 222.765 216.241 223.25 215.532C223.754 214.823 224.464 214.263 225.378 213.852C226.312 213.441 227.404 213.236 228.654 213.236C230.502 213.236 231.977 213.703 233.078 214.636C234.18 215.551 234.786 216.792 234.898 218.36H231.146C231.09 217.744 230.829 217.259 230.362 216.904C229.914 216.531 229.308 216.344 228.542 216.344C227.833 216.344 227.282 216.475 226.89 216.736C226.517 216.997 226.33 217.361 226.33 217.828C226.33 218.351 226.592 218.752 227.114 219.032C227.637 219.293 228.449 219.564 229.55 219.844C230.67 220.124 231.594 220.413 232.322 220.712C233.05 221.011 233.676 221.477 234.198 222.112C234.74 222.728 235.02 223.549 235.038 224.576C235.038 225.472 234.786 226.275 234.282 226.984C233.797 227.693 233.088 228.253 232.154 228.664C231.24 229.056 230.166 229.252 228.934 229.252ZM23.496 258.708V266.212C23.496 266.735 23.6173 267.117 23.86 267.36C24.1213 267.584 24.5507 267.696 25.148 267.696H26.968V271H24.504C21.2 271 19.548 269.395 19.548 266.184V258.708H17.7V255.488H19.548V251.652H23.496V255.488H26.968V258.708H23.496ZM36.6755 271.252C35.1821 271.252 33.8381 270.925 32.6435 270.272C31.4488 269.6 30.5061 268.657 29.8155 267.444C29.1435 266.231 28.8075 264.831 28.8075 263.244C28.8075 261.657 29.1528 260.257 29.8435 259.044C30.5528 257.831 31.5141 256.897 32.7275 256.244C33.9408 255.572 35.2941 255.236 36.7875 255.236C38.2808 255.236 39.6341 255.572 40.8475 256.244C42.0608 256.897 43.0128 257.831 43.7035 259.044C44.4128 260.257 44.7675 261.657 44.7675 263.244C44.7675 264.831 44.4035 266.231 43.6755 267.444C42.9661 268.657 41.9955 269.6 40.7635 270.272C39.5501 270.925 38.1875 271.252 36.6755 271.252ZM36.6755 267.836C37.3848 267.836 38.0475 267.668 38.6635 267.332C39.2981 266.977 39.8021 266.455 40.1755 265.764C40.5488 265.073 40.7355 264.233 40.7355 263.244C40.7355 261.769 40.3435 260.64 39.5595 259.856C38.7941 259.053 37.8515 258.652 36.7315 258.652C35.6115 258.652 34.6688 259.053 33.9035 259.856C33.1568 260.64 32.7835 261.769 32.7835 263.244C32.7835 264.719 33.1475 265.857 33.8755 266.66C34.6221 267.444 35.5555 267.836 36.6755 267.836ZM62.2869 255.488V271H58.3389V269.04C57.8349 269.712 57.1723 270.244 56.3509 270.636C55.5483 271.009 54.6709 271.196 53.7189 271.196C52.5056 271.196 51.4323 270.944 50.4989 270.44C49.5656 269.917 48.8283 269.161 48.2869 268.172C47.7643 267.164 47.5029 265.969 47.5029 264.588V255.488H51.4229V264.028C51.4229 265.26 51.7309 266.212 52.3469 266.884C52.9629 267.537 53.8029 267.864 54.8669 267.864C55.9496 267.864 56.7989 267.537 57.4149 266.884C58.0309 266.212 58.3389 265.26 58.3389 264.028V255.488H62.2869ZM70.7187 258.708V266.212C70.7187 266.735 70.84 267.117 71.0827 267.36C71.344 267.584 71.7733 267.696 72.3707 267.696H74.1907V271H71.7267C68.4227 271 66.7707 269.395 66.7707 266.184V258.708H64.9227V255.488H66.7707V251.652H70.7187V255.488H74.1907V258.708H70.7187ZM91.4301 262.908C91.4301 263.468 91.3928 263.972 91.3181 264.42H79.9781C80.0715 265.54 80.4635 266.417 81.1541 267.052C81.8448 267.687 82.6941 268.004 83.7021 268.004C85.1581 268.004 86.1941 267.379 86.8101 266.128H91.0381C90.5901 267.621 89.7315 268.853 88.4621 269.824C87.1928 270.776 85.6341 271.252 83.7861 271.252C82.2928 271.252 80.9488 270.925 79.7541 270.272C78.5781 269.6 77.6541 268.657 76.9821 267.444C76.3288 266.231 76.0021 264.831 76.0021 263.244C76.0021 261.639 76.3288 260.229 76.9821 259.016C77.6355 257.803 78.5501 256.869 79.7261 256.216C80.9021 255.563 82.2555 255.236 83.7861 255.236C85.2608 255.236 86.5768 255.553 87.7341 256.188C88.9101 256.823 89.8155 257.728 90.4501 258.904C91.1035 260.061 91.4301 261.396 91.4301 262.908ZM87.3701 261.788C87.3515 260.78 86.9875 259.977 86.2781 259.38C85.5688 258.764 84.7008 258.456 83.6741 258.456C82.7035 258.456 81.8821 258.755 81.2101 259.352C80.5568 259.931 80.1555 260.743 80.0061 261.788H87.3701ZM100.227 271.252C98.958 271.252 97.8194 271.028 96.8114 270.58C95.8034 270.113 95.0007 269.488 94.4034 268.704C93.8247 267.92 93.5074 267.052 93.4514 266.1H97.3994C97.474 266.697 97.7634 267.192 98.2674 267.584C98.79 267.976 99.434 268.172 100.199 268.172C100.946 268.172 101.525 268.023 101.935 267.724C102.365 267.425 102.579 267.043 102.579 266.576C102.579 266.072 102.318 265.699 101.795 265.456C101.291 265.195 100.479 264.915 99.3594 264.616C98.202 264.336 97.25 264.047 96.5034 263.748C95.7754 263.449 95.1407 262.992 94.5994 262.376C94.0767 261.76 93.8154 260.929 93.8154 259.884C93.8154 259.025 94.058 258.241 94.5434 257.532C95.0474 256.823 95.7567 256.263 96.6714 255.852C97.6047 255.441 98.6967 255.236 99.9474 255.236C101.795 255.236 103.27 255.703 104.371 256.636C105.473 257.551 106.079 258.792 106.191 260.36H102.439C102.383 259.744 102.122 259.259 101.655 258.904C101.207 258.531 100.601 258.344 99.8354 258.344C99.126 258.344 98.5754 258.475 98.1834 258.736C97.81 258.997 97.6234 259.361 97.6234 259.828C97.6234 260.351 97.8847 260.752 98.4074 261.032C98.93 261.293 99.742 261.564 100.843 261.844C101.963 262.124 102.887 262.413 103.615 262.712C104.343 263.011 104.969 263.477 105.491 264.112C106.033 264.728 106.313 265.549 106.331 266.576C106.331 267.472 106.079 268.275 105.575 268.984C105.09 269.693 104.381 270.253 103.447 270.664C102.533 271.056 101.459 271.252 100.227 271.252ZM120.141 250.28V271H116.221V250.28H120.141ZM138.434 262.908C138.434 263.468 138.397 263.972 138.322 264.42H126.982C127.075 265.54 127.467 266.417 128.158 267.052C128.849 267.687 129.698 268.004 130.706 268.004C132.162 268.004 133.198 267.379 133.814 266.128H138.042C137.594 267.621 136.735 268.853 135.466 269.824C134.197 270.776 132.638 271.252 130.79 271.252C129.297 271.252 127.953 270.925 126.758 270.272C125.582 269.6 124.658 268.657 123.986 267.444C123.333 266.231 123.006 264.831 123.006 263.244C123.006 261.639 123.333 260.229 123.986 259.016C124.639 257.803 125.554 256.869 126.73 256.216C127.906 255.563 129.259 255.236 130.79 255.236C132.265 255.236 133.581 255.553 134.738 256.188C135.914 256.823 136.819 257.728 137.454 258.904C138.107 260.061 138.434 261.396 138.434 262.908ZM134.374 261.788C134.355 260.78 133.991 259.977 133.282 259.38C132.573 258.764 131.705 258.456 130.678 258.456C129.707 258.456 128.886 258.755 128.214 259.352C127.561 259.931 127.159 260.743 127.01 261.788H134.374ZM147.231 271.252C145.962 271.252 144.823 271.028 143.815 270.58C142.807 270.113 142.005 269.488 141.407 268.704C140.829 267.92 140.511 267.052 140.455 266.1H144.403C144.478 266.697 144.767 267.192 145.271 267.584C145.794 267.976 146.438 268.172 147.203 268.172C147.95 268.172 148.529 268.023 148.939 267.724C149.369 267.425 149.583 267.043 149.583 266.576C149.583 266.072 149.322 265.699 148.799 265.456C148.295 265.195 147.483 264.915 146.363 264.616C145.206 264.336 144.254 264.047 143.507 263.748C142.779 263.449 142.145 262.992 141.603 262.376C141.081 261.76 140.819 260.929 140.819 259.884C140.819 259.025 141.062 258.241 141.547 257.532C142.051 256.823 142.761 256.263 143.675 255.852C144.609 255.441 145.701 255.236 146.951 255.236C148.799 255.236 150.274 255.703 151.375 256.636C152.477 257.551 153.083 258.792 153.195 260.36H149.443C149.387 259.744 149.126 259.259 148.659 258.904C148.211 258.531 147.605 258.344 146.839 258.344C146.13 258.344 145.579 258.475 145.187 258.736C144.814 258.997 144.627 259.361 144.627 259.828C144.627 260.351 144.889 260.752 145.411 261.032C145.934 261.293 146.746 261.564 147.847 261.844C148.967 262.124 149.891 262.413 150.619 262.712C151.347 263.011 151.973 263.477 152.495 264.112C153.037 264.728 153.317 265.549 153.335 266.576C153.335 267.472 153.083 268.275 152.579 268.984C152.094 269.693 151.385 270.253 150.451 270.664C149.537 271.056 148.463 271.252 147.231 271.252ZM27.668 297.264C28.844 297.264 29.8893 297.525 30.804 298.048C31.7187 298.552 32.428 299.308 32.932 300.316C33.4547 301.305 33.716 302.5 33.716 303.9V313H29.796V304.432C29.796 303.2 29.488 302.257 28.872 301.604C28.256 300.932 27.416 300.596 26.352 300.596C25.2693 300.596 24.4107 300.932 23.776 301.604C23.16 302.257 22.852 303.2 22.852 304.432V313H18.932V292.28H22.852V299.42C23.356 298.748 24.028 298.225 24.868 297.852C25.708 297.46 26.6413 297.264 27.668 297.264ZM51.8637 304.908C51.8637 305.468 51.8264 305.972 51.7517 306.42H40.4117C40.5051 307.54 40.8971 308.417 41.5877 309.052C42.2784 309.687 43.1277 310.004 44.1357 310.004C45.5917 310.004 46.6277 309.379 47.2437 308.128H51.4717C51.0237 309.621 50.1651 310.853 48.8957 311.824C47.6264 312.776 46.0677 313.252 44.2197 313.252C42.7264 313.252 41.3824 312.925 40.1877 312.272C39.0117 311.6 38.0877 310.657 37.4157 309.444C36.7624 308.231 36.4357 306.831 36.4357 305.244C36.4357 303.639 36.7624 302.229 37.4157 301.016C38.0691 299.803 38.9837 298.869 40.1597 298.216C41.3357 297.563 42.6891 297.236 44.2197 297.236C45.6944 297.236 47.0104 297.553 48.1677 298.188C49.3437 298.823 50.2491 299.728 50.8837 300.904C51.5371 302.061 51.8637 303.396 51.8637 304.908ZM47.8037 303.788C47.7851 302.78 47.4211 301.977 46.7117 301.38C46.0024 300.764 45.1344 300.456 44.1077 300.456C43.1371 300.456 42.3157 300.755 41.6437 301.352C40.9904 301.931 40.5891 302.743 40.4397 303.788H47.8037ZM69.369 297.488V313H65.421V311.04C64.917 311.712 64.2543 312.244 63.433 312.636C62.6303 313.009 61.753 313.196 60.801 313.196C59.5876 313.196 58.5143 312.944 57.581 312.44C56.6476 311.917 55.9103 311.161 55.369 310.172C54.8463 309.164 54.585 307.969 54.585 306.588V297.488H58.505V306.028C58.505 307.26 58.813 308.212 59.429 308.884C60.045 309.537 60.885 309.864 61.949 309.864C63.0316 309.864 63.881 309.537 64.497 308.884C65.113 308.212 65.421 307.26 65.421 306.028V297.488H69.369ZM77.1567 299.896C77.6607 299.075 78.314 298.431 79.1167 297.964C79.938 297.497 80.8714 297.264 81.9167 297.264V301.38H80.8807C79.6487 301.38 78.7154 301.669 78.0807 302.248C77.4647 302.827 77.1567 303.835 77.1567 305.272V313H73.2367V297.488H77.1567V299.896ZM98.977 304.908C98.977 305.468 98.9397 305.972 98.865 306.42H87.525C87.6183 307.54 88.0103 308.417 88.701 309.052C89.3917 309.687 90.241 310.004 91.249 310.004C92.705 310.004 93.741 309.379 94.357 308.128H98.585C98.137 309.621 97.2783 310.853 96.009 311.824C94.7397 312.776 93.181 313.252 91.333 313.252C89.8397 313.252 88.4957 312.925 87.301 312.272C86.125 311.6 85.201 310.657 84.529 309.444C83.8757 308.231 83.549 306.831 83.549 305.244C83.549 303.639 83.8757 302.229 84.529 301.016C85.1823 299.803 86.097 298.869 87.273 298.216C88.449 297.563 89.8023 297.236 91.333 297.236C92.8077 297.236 94.1237 297.553 95.281 298.188C96.457 298.823 97.3623 299.728 97.997 300.904C98.6503 302.061 98.977 303.396 98.977 304.908ZM94.917 303.788C94.8983 302.78 94.5343 301.977 93.825 301.38C93.1157 300.764 92.2477 300.456 91.221 300.456C90.2503 300.456 89.429 300.755 88.757 301.352C88.1037 301.931 87.7023 302.743 87.553 303.788H94.917ZM107.774 313.252C106.505 313.252 105.366 313.028 104.358 312.58C103.35 312.113 102.548 311.488 101.95 310.704C101.372 309.92 101.054 309.052 100.998 308.1H104.946C105.021 308.697 105.31 309.192 105.814 309.584C106.337 309.976 106.981 310.172 107.746 310.172C108.493 310.172 109.072 310.023 109.482 309.724C109.912 309.425 110.126 309.043 110.126 308.576C110.126 308.072 109.865 307.699 109.342 307.456C108.838 307.195 108.026 306.915 106.906 306.616C105.749 306.336 104.797 306.047 104.05 305.748C103.322 305.449 102.688 304.992 102.146 304.376C101.624 303.76 101.362 302.929 101.362 301.884C101.362 301.025 101.605 300.241 102.09 299.532C102.594 298.823 103.304 298.263 104.218 297.852C105.152 297.441 106.244 297.236 107.494 297.236C109.342 297.236 110.817 297.703 111.918 298.636C113.02 299.551 113.626 300.792 113.738 302.36H109.986C109.93 301.744 109.669 301.259 109.202 300.904C108.754 300.531 108.148 300.344 107.382 300.344C106.673 300.344 106.122 300.475 105.73 300.736C105.357 300.997 105.17 301.361 105.17 301.828C105.17 302.351 105.432 302.752 105.954 303.032C106.477 303.293 107.289 303.564 108.39 303.844C109.51 304.124 110.434 304.413 111.162 304.712C111.89 305.011 112.516 305.477 113.038 306.112C113.58 306.728 113.86 307.549 113.878 308.576C113.878 309.472 113.626 310.275 113.122 310.984C112.637 311.693 111.928 312.253 110.994 312.664C110.08 313.056 109.006 313.252 107.774 313.252Z" fill="white"/>
<g opacity="0.35">
<path opacity="0.5" d="M152 27.4751L232 12V200.281L152 178.787V27.4751Z" fill="#FDFDFD"/>
<path opacity="0.5" d="M112 29.1946L192 13.7195V202L112 180.507V29.1946Z" fill="#FDFDFD"/>
<path opacity="0.5" d="M65 29.1946L145 13.7195V202L65 180.507V29.1946Z" fill="#FDFDFD"/>
<path opacity="0.5" d="M24 29.1946L104 13.7195V202L24 180.507V29.1946Z" fill="#FDFDFD"/>
</g>
</svg>
